HIERARCHY
ROOT hip
{
  OFFSET 0 0 0
  CHANNELS 6 Xposition Yposition Zposition Zrotation Yrotation Xrotation
  JOINT abdomen
  {
    OFFSET 0 20.6881 -0.73152
    CHANNELS 3 Zrotation Xrotation Yrotation
    JOINT chest
    {
      OFFSET 0 11.7043 -0.48768
      CHANNELS 3 Zrotation Xrotation Yrotation
      JOINT neck
      {
        OFFSET 0 22.1894 -2.19456
        CHANNELS 3 Zrotation Xrotation Yrotation
        JOINT head
        {
          OFFSET -0.24384 7.07133 1.2192
          CHANNELS 3 Zrotation Xrotation Yrotation
          JOINT leftEye
          {
            OFFSET 4.14528 8.04674 8.04672
            CHANNELS 3 Zrotation Xrotation Yrotation
            End Site
            {
              OFFSET 1 0 0
            }
          }
          JOINT rightEye
          {
            OFFSET -3.6576 8.04674 8.04672
            CHANNELS 3 Zrotation Xrotation Yrotation
            End Site
            {
              OFFSET 1 0 0
            }
          }
        }
      }
      JOINT rCollar
      {
        OFFSET -2.68224 19.2634 -4.8768
        CHANNELS 3 Zrotation Xrotation Yrotation
        JOINT rShldr
        {
          OFFSET -8.77824 -1.95073 1.46304
          CHANNELS 3 Zrotation Xrotation Yrotation
          JOINT rForeArm
          {
            OFFSET -28.1742 -1.7115 0.48768
            CHANNELS 3 Zrotation Xrotation Yrotation
            JOINT rHand
            {
              OFFSET -22.5879 0.773209 7.07136
              CHANNELS 3 Zrotation Xrotation Yrotation
              JOINT rThumb1
              {
                OFFSET -1.2192 -0.487915 3.41376
                CHANNELS 3 Zrotation Xrotation Yrotation
                JOINT rThumb2
                {
                  OFFSET -3.37035 -0.52449 3.41376
                  CHANNELS 3 Zrotation Xrotation Yrotation
                  End Site
                  {
                    OFFSET -1.78271 -1.18214 1.43049
                  }
                }
              }
              JOINT rIndex1
              {
                OFFSET -7.75947 0.938293 5.60832
                CHANNELS 3 Zrotation Xrotation Yrotation
                JOINT rIndex2
                {
                  OFFSET -2.54057 -0.884171 1.56538
                  CHANNELS 3 Zrotation Xrotation Yrotation
                  End Site
                  {
                    OFFSET -1.62519 -0.234802 1.16502
                  }
                }
              }
              JOINT rMid1
              {
                OFFSET -8.24714 1.18213 3.41376
                CHANNELS 3 Zrotation Xrotation Yrotation
                JOINT rMid2
                {
                  OFFSET -3.10165 -0.590103 1.0647
                  CHANNELS 3 Zrotation Xrotation Yrotation
                  End Site
                  {
                    OFFSET -2.48547 -0.328903 0.83742
                  }
                }
              }
              JOINT rRing1
              {
                OFFSET -8.82822 0.546677 1.51678
                CHANNELS 3 Zrotation Xrotation Yrotation
                JOINT rRing2
                {
                  OFFSET -2.60934 -0.819778 -0.0198488
                  CHANNELS 3 Zrotation Xrotation Yrotation
                  End Site
                  {
                    OFFSET -2.33842 -0.294052 0.168128
                  }
                }
              }
              JOINT rPinky1
              {
                OFFSET -8.27202 -0.0477905 -0.4584
                CHANNELS 3 Zrotation Xrotation Yrotation
                JOINT rPinky2
                {
                  OFFSET -1.82734 -0.647385 -0.700984
                  CHANNELS 3 Zrotation Xrotation Yrotation
                  End Site
                  {
                    OFFSET -1.69225 -0.51767 -0.607171
                  }
                }
              }
            }
          }
        }
      }
      JOINT lCollar
      {
        OFFSET 2.68224 19.2634 -4.8768
        CHANNELS 3 Zrotation Xrotation Yrotation
        JOINT lShldr
        {
          OFFSET 8.77824 -1.95073 1.46304
          CHANNELS 3 Zrotation Xrotation Yrotation
          JOINT lForeArm
          {
            OFFSET 28.1742 -1.7115 0.48768
            CHANNELS 3 Zrotation Xrotation Yrotation
            JOINT lHand
            {
              OFFSET 22.5879 0.773209 7.07136
              CHANNELS 3 Zrotation Xrotation Yrotation
              JOINT lThumb1
              {
                OFFSET 1.2192 -0.487915 3.41376
                CHANNELS 3 Zrotation Xrotation Yrotation
                JOINT lThumb2
                {
                  OFFSET 3.37035 -0.52449 3.41376
                  CHANNELS 3 Zrotation Xrotation Yrotation
                  End Site
                  {
                    OFFSET 1.78271 -1.18214 1.43049
                  }
                }
              }
              JOINT lIndex1
              {
                OFFSET 7.75947 0.938293 5.60832
                CHANNELS 3 Zrotation Xrotation Yrotation
                JOINT lIndex2
                {
                  OFFSET 2.54057 -0.884171 1.56538
                  CHANNELS 3 Zrotation Xrotation Yrotation
                  End Site
                  {
                    OFFSET 1.62519 -0.234802 1.16502
                  }
                }
              }
              JOINT lMid1
              {
                OFFSET 8.24714 1.18213 3.41376
                CHANNELS 3 Zrotation Xrotation Yrotation
                JOINT lMid2
                {
                  OFFSET 3.10165 -0.590103 1.0647
                  CHANNELS 3 Zrotation Xrotation Yrotation
                  End Site
                  {
                    OFFSET 2.48547 -0.328903 0.83742
                  }
                }
              }
              JOINT lRing1
              {
                OFFSET 8.82822 0.546677 1.51678
                CHANNELS 3 Zrotation Xrotation Yrotation
                JOINT lRing2
                {
                  OFFSET 2.60934 -0.819778 -0.0198488
                  CHANNELS 3 Zrotation Xrotation Yrotation
                  End Site
                  {
                    OFFSET 2.33842 -0.294052 0.168128
                  }
                }
              }
              JOINT lPinky1
              {
                OFFSET 8.27202 -0.0477905 -0.4584
                CHANNELS 3 Zrotation Xrotation Yrotation
                JOINT lPinky2
                {
                  OFFSET 1.82734 -0.647385 -0.700984
                  CHANNELS 3 Zrotation Xrotation Yrotation
                  End Site
                  {
                    OFFSET 1.69225 -0.51767 -0.607171
                  }
                }
              }
            }
          }
        }
      }
    }
  }
  JOINT rButtock
  {
    OFFSET -8.77824 4.35084 1.2192
    CHANNELS 3 Zrotation Xrotation Yrotation
    JOINT rThigh
    {
      OFFSET 0 -1.70687 -2.19456
      CHANNELS 3 Zrotation Xrotation Yrotation
      JOINT rShin
      {
        OFFSET 0 -36.8199 0.73152
        CHANNELS 3 Zrotation Xrotation Yrotation
        JOINT rFoot
        {
          OFFSET 0.73152 -45.1104 -5.12064
          CHANNELS 3 Zrotation Xrotation Yrotation
          End Site
          {
            OFFSET -1.1221 -3.69964 12.103
          }
        }
      }
    }
  }
  JOINT lButtock
  {
    OFFSET 8.77824 4.35084 1.2192
    CHANNELS 3 Zrotation Xrotation Yrotation
    JOINT lThigh
    {
      OFFSET 0 -1.70687 -2.19456
      CHANNELS 3 Zrotation Xrotation Yrotation
      JOINT lShin
      {
        OFFSET 0 -36.8199 0.73152
        CHANNELS 3 Zrotation Xrotation Yrotation
        JOINT lFoot
        {
          OFFSET -0.73152 -45.1104 -5.12064
          CHANNELS 3 Zrotation Xrotation Yrotation
          End Site
          {
            OFFSET 1.1221 -3.69964 12.103
          }
        }
      }
    }
  }
}
MOTION
Frames:	4
Frame Time:	0.03333
46.1534 53.2226 -75.15129999999999 -150.092554 61.424428 -152.03811 7.66022 12.751546 -0.0 3.052213 -8.158091 5.493743 9.519646 26.810098 127.55239 -31.843194 22.912641 -97.879421 -0.000189 0.0 -0.003748 0.000825 0.0 0.00423 -155.474515 -3.322196 161.797653 139.496812 2.812011 132.286502 -101.863085 -40.208756 74.750992 -178.68089 -48.136446 151.468002 175.880734 -21.257751 88.493341 -71.347123 8.215168 18.808156 12.216521 -21.784713 -5.12031 -135.728577 18.595348 104.961907 -152.826121 14.793004 138.514214 80.98868 -77.64052 52.462421 -145.100325 -1.521857 -178.649484 12.211715 48.564085 -3.342419 -148.965723 25.013429 -145.072082 -155.671918 36.303912 -145.942825 0.048986 0.292388 -0.065084 -51.786964 5.421059 -34.253391 -164.840149 0.048364 -119.662808 -152.570879 -32.539141 -144.225629 171.603019 -9.286507 -89.949258 38.969408 -23.027678 -5.787787 50.385501 40.826756 -40.02479 154.824352 4.102709 -110.853609 0.969199 2.779507 -0.554412 42.061313 58.559973 -36.103183 145.11888 0.268526 179.210886 -7.724184 -21.548743 12.224581 55.228905 -50.541487 53.896026 126.908895 -29.523433 125.931847 0.0 0.001208 -0.001505 -16.840496 -1.425113 88.529591 52.430181 -10.409929 -1.494681 114.83433 77.041217 150.586411 179.980009 75.749547 0.013678 -141.320788 -1.053556 1.754399 43.203301 66.175079 32.797571 -1.159166 9.494975 -88.55696
46.6489 53.0006 -76.1938 -150.583442 60.408406 -151.442625 8.681713 11.385213 -1.369323 3.047637 -7.99339 6.843155 7.911676 15.621924 58.134791 -23.06944 -14.556781 -38.374767 0.002538 0.0 0.003309 -0.00397 0.0 -0.000403 -69.035873 -86.842536 -90.938704 -29.467996 23.382273 -32.456159 1.866804 -63.305965 -146.884072 -161.246666 14.346738 138.131575 -169.552439 -7.233412 89.928966 -28.094805 -32.674736 5.036592 -152.104968 -18.556536 121.36803 -0.723386 22.173895 -4.490501 -10.975465 25.790078 7.639393 91.975932 -78.551943 62.885568 -145.116722 0.185267 -179.186876 -76.144175 -77.982649 -97.663463 -145.495488 13.104332 -142.11131 -80.691547 -52.564151 -80.182697 9.652205 34.836149 -11.199154 111.620361 16.172269 -115.742832 1.919049 -20.890846 62.340248 -118.469343 -57.821056 -112.460936 -4.529555 -4.514644 0.521285 128.604708 -21.387764 -115.335627 140.163981 2.326282 -115.878137 165.585278 -19.926573 -118.964696 141.479912 35.11065 -129.492251 172.134233 -31.382144 -143.724776 145.062878 -3.223879 178.11294 153.045501 -19.03889 176.453893 74.1313 -51.747843 72.618387 75.394771 -53.971099 76.05499 0.00259 0.000349 0.00259 -16.616626 0.652326 87.81524 43.501511 -2.407468 -88.225747 163.697148 -26.303703 37.793654 -0.002072 0.000349 -0.001036 78.236204 -51.909839 168.412876 80.827853 -8.02125 133.043932 99.803941 -31.588965 -163.632345
47.138400000000004 52.7259 -76.97800000000001 -150.628783 60.325027 -150.789498 9.05193 10.486016 -0.0 2.91675 -8.00498 5.835675 11.107075 21.473885 94.58636 -32.437104 4.833452 -70.989793 5.4e-05 0.0 0.003344 -0.000824 0.0 -0.001127 4.238532 -44.742734 -8.648826 124.823472 35.89248 -107.797198 172.622143 33.079416 38.078652 -155.063609 26.742188 132.331095 -3.029616 2.964465 0.541514 18.763416 -26.773359 -11.134314 -108.426143 34.160127 91.742951 -66.413312 54.038471 46.000649 -153.319482 13.628535 138.86181 -153.887091 19.91172 138.357205 -75.115515 72.95721 93.117165 -65.198172 83.134652 74.001548 -152.201595 37.330256 -147.581611 -161.433924 52.648762 -146.957336 85.53707 68.181586 -88.688925 88.340864 37.604179 -66.318494 -5.443728 -23.647994 60.689663 -132.167805 -52.100265 -125.489105 4.035483 3.931324 -0.754814 -18.676153 -25.785689 10.312973 108.427846 34.160938 -91.74279 -77.958112 -65.720318 -31.512157 39.289154 53.365685 -32.878819 88.566534 63.975776 -80.473573 -0.000628 -0.061045 0.017836 154.387777 11.217268 -170.333396 -16.519284 57.85861 -12.546934 148.650522 12.77742 143.3981 0.00544 -0.00044 0.00272 -14.663735 2.059964 -90.802259 -53.644668 2.868799 -86.078827 -120.423078 44.222757 -142.849335 -179.999505 75.751316 0.0 -142.274818 -5.153726 94.991867 72.202297 -12.653718 -80.225771 -124.801398 -13.5537 25.702435
47.642 52.4463 -77.4941 -149.946884 60.18015 -149.827779 12.097503 7.657103 -88.250918 5.691409 0.44693 93.628985 -1.604657 32.106374 -157.067071 8.005332 43.753027 178.224512 0.00359 0.0 0.000964 -0.00196 -0.0 0.00527 -155.809622 -5.555291 162.267116 103.072941 -29.168678 126.607929 -3.551636 -34.646547 107.804586 -9.090602 -30.194654 -7.365855 9.727725 -9.717891 -0.678243 48.121956 -82.462283 -16.134491 -108.426597 34.160149 91.742755 -66.412514 54.038889 46.000889 -169.089005 -33.247592 145.374358 -163.86491 -6.227992 143.130564 -72.349408 72.975271 90.217823 -80.939742 83.199734 89.868761 16.822718 58.945889 12.649386 -85.832523 -53.409928 -84.403074 28.502071 57.37195 -30.875085 177.059723 1.086055 -120.402827 132.044049 68.612505 -162.712101 3.601538 43.027558 -6.6743 166.507631 -4.180716 -89.76123 126.195948 10.061249 -60.39352 140.165435 2.326585 -115.877864 -8.956582 0.529699 9.249681 20.13747 39.007226 -15.359177 166.754681 -15.971301 -144.124672 0.02092 -1.725096 0.542871 -7.052894 29.71717 -4.674569 149.119239 25.573244 145.198176 21.563388 -36.786328 22.868108 -0.002621 0.000909 -0.00131 -15.620352 4.670897 0.987131 14.830482 44.960435 108.304582 138.65713 29.802937 152.028405 -0.002621 0.000909 -0.00131 80.676009 -50.046326 78.84327 67.56619 75.124575 67.967253 1.595071 12.046659 -149.265949
